# Blender3D v245 OBJ File: arch_wall.blend
# www.blender3d.org
mtllib arch_wall.mtl
o Cube
v 2.000000 -1.000000 -1.182620
v 2.000000 -1.000000 0.000000
v -2.000000 -1.000000 -0.000000
v -2.000000 -1.000000 -1.182620
v 2.000000 1.000000 -2.109808
v 1.999999 1.000000 0.000001
v -2.001722 1.005120 0.004379
v -2.000000 1.000000 -2.109808
v -1.461574 1.000000 -2.109808
v -1.502559 1.000000 -1.903761
v -1.619275 1.000000 -1.729084
v -1.793953 1.000000 -1.612368
v -2.000000 1.000000 -1.571382
v -1.502559 6.000000 -1.903762
v -1.461574 6.000000 -2.109808
v -1.619275 6.000000 -1.729084
v -1.793953 6.000000 -1.612368
v -2.000000 6.000000 -1.571383
v 2.000000 1.000000 -1.571382
v 1.793953 1.000000 -1.612368
v 1.619275 1.000000 -1.729084
v 1.502559 1.000000 -1.903761
v 1.461574 1.000000 -2.109808
v -1.426660 6.373341 -2.109808
v -1.426660 6.000000 -2.109808
v -2.000000 6.000000 -2.109808
v -2.000000 6.373341 -2.109808
v -1.426659 6.373341 -1.536468
v -1.426660 6.000000 -1.536468
v -2.000000 6.000000 -1.536468
v -2.000000 6.373341 -1.536468
v 0.000000 7.800000 -2.109808
v 0.000000 7.800000 -1.536809
v -1.074304 7.350239 -1.536638
v -1.074304 7.350239 -2.109808
v -1.324116 6.915555 -1.536553
v -0.610787 7.628885 -1.536723
v -1.324116 6.915555 -2.109808
v -0.610787 7.628885 -2.109808
v -2.000000 8.612755 -2.109809
v -2.000000 8.137514 -1.536468
v 0.000000 8.137514 -1.536468
v 2.000000 8.137514 -1.536468
v 2.000000 8.612755 -2.109809
v 0.610787 7.628885 -2.109808
v 0.610787 7.628885 -1.536723
v 1.074304 7.350239 -2.109808
v 1.074304 7.350239 -1.536638
v 0.000000 1.000000 -1.612368
v -0.000000 8.612755 -2.109809
v 1.324116 6.915555 -2.109808
v 1.324116 6.915555 -1.536553
v 2.000000 6.373341 -1.536468
v 2.000000 6.000000 -1.536468
v 1.426660 6.000000 -1.536468
v 1.426659 6.373341 -1.536468
v 2.000000 6.373341 -2.109808
v 2.000000 6.000000 -2.109808
v 1.426660 6.000000 -2.109808
v 1.426660 6.373341 -2.109808
v 2.000000 6.000000 -1.571383
v 1.793953 6.000000 -1.612368
v 1.619275 6.000000 -1.729084
v 1.461574 6.000000 -2.109808
v 1.502559 6.000000 -1.903762
v -2.000000 6.000000 -2.257489
v -2.000000 6.373341 -2.257489
v -2.000000 8.612755 -2.257489
v -2.000000 1.000000 -2.257489
v 2.000000 6.373341 -2.257489
v 2.000000 6.000000 -2.257489
v 2.000000 8.612755 -2.257489
v -0.000000 8.612755 -2.257489
v 2.000000 1.000000 -2.257488
v 0.000000 6.373341 -2.257489
v 0.000000 6.000000 -2.257489
vt 0.375000 0.187500 0.0
vt 0.375000 0.062500 0.0
vt 0.625000 0.062500 0.0
vt 0.625000 0.187500 0.0
vt 0.257812 0.664062 0.0
vt 0.257812 0.785498 0.0
vt 0.023438 0.785656 0.0
vt 0.023438 0.664062 0.0
vt 0.968750 0.804688 0.0
vt 0.992188 0.804688 0.0
vt 0.992188 0.968750 0.0
vt 0.968750 0.968750 0.0
vt 0.945312 0.804688 0.0
vt 0.968750 0.804688 0.0
vt 0.968750 0.968750 0.0
vt 0.945312 0.968750 0.0
vt 0.921875 0.804688 0.0
vt 0.945312 0.804688 0.0
vt 0.945312 0.968750 0.0
vt 0.921875 0.968750 0.0
vt 0.898438 0.804688 0.0
vt 0.921875 0.804688 0.0
vt 0.921875 0.968750 0.0
vt 0.898438 0.968750 0.0
vt 0.385551 0.804996 0.0
vt 0.343750 0.804688 0.0
vt 0.343750 0.781250 0.0
vt 0.382812 0.781250 0.0
vt 0.058104 0.964773 0.0
vt 0.058104 0.999963 0.0
vt 0.035189 0.999963 0.0
vt 0.035190 0.964773 0.0
vt 0.058104 0.999963 0.0
vt 0.058104 0.964773 0.0
vt 0.091973 0.964773 0.0
vt 0.091973 0.999958 0.0
vt 0.091973 0.999958 0.0
vt 0.091973 0.964773 0.0
vt 0.122745 0.964773 0.0
vt 0.122745 0.999953 0.0
vt 0.122745 0.999953 0.0
vt 0.122745 0.964773 0.0
vt 0.155939 0.964773 0.0
vt 0.155939 0.999948 0.0
vt 0.155939 0.999948 0.0
vt 0.155939 0.964773 0.0
vt 0.194872 0.964773 0.0
vt 0.194872 0.999943 0.0
vt 0.701898 0.581256 0.0
vt 0.625000 0.750000 0.0
vt 0.625000 0.687500 0.0
vt 0.646329 0.572856 0.0
vt 0.625000 0.750000 0.0
vt 0.500000 0.750000 0.0
vt 0.500000 0.687500 0.0
vt 0.625000 0.687500 0.0
vt 0.343750 0.804688 0.0
vt 0.398076 0.846745 0.0
vt 0.421875 0.882812 0.0
vt 0.343750 0.937500 0.0
vt 0.385551 0.804996 0.0
vt 0.398076 0.846745 0.0
vt 0.343750 0.804688 0.0
vt 0.421875 0.882812 0.0
vt 0.468750 0.906250 0.0
vt 0.500000 0.937500 0.0
vt 0.343750 0.937500 0.0
vt 0.500000 0.914062 0.0
vt 0.500000 0.937500 0.0
vt 0.468750 0.906250 0.0
vt 0.500000 0.914062 0.0
vt 0.531250 0.906250 0.0
vt 0.500000 0.937500 0.0
vt 0.578125 0.882812 0.0
vt 0.656250 0.937500 0.0
vt 0.500000 0.937500 0.0
vt 0.531250 0.906250 0.0
vt 0.375000 0.750000 0.0
vt 0.375000 0.687500 0.0
vt 0.500000 0.687500 0.0
vt 0.500000 0.750000 0.0
vt 0.233805 0.999948 0.0
vt 0.194872 0.999943 0.0
vt 0.194872 0.964773 0.0
vt 0.233804 0.964772 0.0
vt 0.267000 0.999953 0.0
vt 0.233805 0.999948 0.0
vt 0.233804 0.964772 0.0
vt 0.267000 0.964772 0.0
vt 0.030531 0.977419 0.0
vt 0.035189 0.999963 0.0
vt 0.023367 0.988140 0.0
vt 0.023367 0.988140 0.0
vt 0.035189 0.999963 0.0
vt 0.012646 0.995304 0.0
vt 0.654254 0.283350 0.0
vt 0.695024 0.277004 0.0
vt 0.696442 0.539267 0.0
vt 0.649490 0.530816 0.0
vt 0.070312 0.921875 0.0
vt 0.067638 0.907482 0.0
vt 0.213844 0.907244 0.0
vt 0.210938 0.921875 0.0
vt 0.067638 0.907482 0.0
vt 0.054652 0.891190 0.0
vt 0.227941 0.890830 0.0
vt 0.213844 0.907244 0.0
vt 0.141042 0.882812 0.0
vt 0.227941 0.890830 0.0
vt 0.054652 0.891190 0.0
vt 0.245564 0.881956 0.0
vt 0.227941 0.890830 0.0
vt 0.141042 0.882812 0.0
vt 0.141042 0.882812 0.0
vt 0.054652 0.891190 0.0
vt 0.036219 0.882260 0.0
vt 0.023438 0.785656 0.0
vt 0.141042 0.882812 0.0
vt 0.036219 0.882260 0.0
vt 0.023438 0.882812 0.0
vt 0.257812 0.785498 0.0
vt 0.257812 0.882812 0.0
vt 0.245564 0.881956 0.0
vt 0.141042 0.882812 0.0
vt 0.257812 0.785498 0.0
vt 0.141042 0.882812 0.0
vt 0.023438 0.785656 0.0
vt 0.347624 0.284211 0.0
vt 0.353070 0.533553 0.0
vt 0.306287 0.539608 0.0
vt 0.308905 0.278254 0.0
vt 0.366382 0.988139 0.0
vt 0.377104 0.995303 0.0
vt 0.354560 0.999962 0.0
vt 0.359218 0.977418 0.0
vt 0.366382 0.988139 0.0
vt 0.354560 0.999962 0.0
vt 0.614450 0.804996 0.0
vt 0.656250 0.804688 0.0
vt 0.601924 0.846745 0.0
vt 0.656250 0.804688 0.0
vt 0.656250 0.937500 0.0
vt 0.578125 0.882812 0.0
vt 0.601924 0.846745 0.0
vt 0.298176 0.581588 0.0
vt 0.353137 0.574937 0.0
vt 0.375000 0.687500 0.0
vt 0.375000 0.750000 0.0
vt 0.297773 0.999958 0.0
vt 0.267000 0.999953 0.0
vt 0.267000 0.964772 0.0
vt 0.297772 0.964771 0.0
vt 0.331644 0.999962 0.0
vt 0.297773 0.999958 0.0
vt 0.297772 0.964771 0.0
vt 0.331643 0.964771 0.0
vt 0.331643 0.964771 0.0
vt 0.354559 0.964770 0.0
vt 0.354560 0.999962 0.0
vt 0.331644 0.999962 0.0
vt 0.614450 0.804996 0.0
vt 0.617188 0.781250 0.0
vt 0.656250 0.781250 0.0
vt 0.656250 0.804688 0.0
vt 0.890625 0.804688 0.0
vt 0.890625 0.968750 0.0
vt 0.867188 0.968750 0.0
vt 0.867188 0.804688 0.0
vt 0.867188 0.804688 0.0
vt 0.867188 0.968750 0.0
vt 0.843750 0.968750 0.0
vt 0.843750 0.804688 0.0
vt 0.843750 0.804688 0.0
vt 0.843750 0.968750 0.0
vt 0.820312 0.968750 0.0
vt 0.820312 0.804688 0.0
vt 0.820312 0.804688 0.0
vt 0.820312 0.968750 0.0
vt 0.796875 0.968750 0.0
vt 0.796875 0.804688 0.0
vt 0.843750 0.781583 0.0
vt 0.811057 0.773483 0.0
vt 0.876420 0.773429 0.0
vt 0.785963 0.759178 0.0
vt 0.901523 0.759176 0.0
vt 0.876420 0.773429 0.0
vt 0.811057 0.773483 0.0
vt 0.785963 0.759178 0.0
vt 0.772181 0.736329 0.0
vt 0.915283 0.736302 0.0
vt 0.901523 0.759176 0.0
vt 0.766193 0.707471 0.0
vt 0.921279 0.707467 0.0
vt 0.915283 0.736302 0.0
vt 0.772181 0.736329 0.0
vt 0.766193 0.707471 0.0
vt 0.765625 0.687500 0.0
vt 0.921875 0.687500 0.0
vt 0.921279 0.707467 0.0
vt 0.921875 0.414062 0.0
vt 0.937500 0.687500 0.0
vt 0.921875 0.687500 0.0
vt 0.765625 0.414062 0.0
vt 0.765625 0.687500 0.0
vt 0.750000 0.687500 0.0
vt 0.765625 0.414062 0.0
vt 0.921875 0.414062 0.0
vt 0.921875 0.687500 0.0
vt 0.765625 0.687500 0.0
vt 0.649490 0.530816 0.0
vt 0.646329 0.572856 0.0
vt 0.625000 0.562500 0.0
vt 0.625000 0.531250 0.0
vt 0.625000 0.687500 0.0
vt 0.625000 0.671875 0.0
vt 0.625000 0.562500 0.0
vt 0.646329 0.572856 0.0
vt 0.654254 0.283350 0.0
vt 0.649490 0.530816 0.0
vt 0.625000 0.531250 0.0
vt 0.625000 0.281250 0.0
vt 0.353137 0.574937 0.0
vt 0.353070 0.533553 0.0
vt 0.375000 0.531250 0.0
vt 0.375000 0.562500 0.0
vt 0.375000 0.687500 0.0
vt 0.353137 0.574937 0.0
vt 0.375000 0.562500 0.0
vt 0.375000 0.671875 0.0
vt 0.500000 0.687500 0.0
vt 0.375000 0.687500 0.0
vt 0.375000 0.671875 0.0
vt 0.500000 0.671875 0.0
vt 0.353070 0.533553 0.0
vt 0.347624 0.284211 0.0
vt 0.375015 0.281250 0.0
vt 0.375000 0.531250 0.0
vt 0.500000 0.687500 0.0
vt 0.500000 0.671875 0.0
vt 0.625000 0.671875 0.0
vt 0.625000 0.687500 0.0
vt 0.625000 0.562500 0.0
vt 0.500000 0.562500 0.0
vt 0.500000 0.531250 0.0
vt 0.625000 0.531250 0.0
vt 0.500000 0.562500 0.0
vt 0.375000 0.562500 0.0
vt 0.375000 0.531250 0.0
vt 0.500000 0.531250 0.0
vt 0.625000 0.562500 0.0
vt 0.625000 0.671875 0.0
vt 0.500000 0.671875 0.0
vt 0.500000 0.562500 0.0
vt 0.375000 0.562500 0.0
vt 0.500000 0.562500 0.0
vt 0.500000 0.671875 0.0
vt 0.375000 0.671875 0.0
vt 0.375000 0.531250 0.0
vt 0.375015 0.281250 0.0
vt 0.500000 0.531250 0.0
vt 0.625000 0.531250 0.0
vt 0.500000 0.531250 0.0
vt 0.625000 0.281250 0.0
vt 0.625000 0.281250 0.0
vt 0.500000 0.531250 0.0
vt 0.375015 0.281250 0.0
vt 0.625000 0.187500 0.0
vt 0.654254 0.283350 0.0
vt 0.625000 0.281250 0.0
vt 0.375000 0.187500 0.0
vt 0.375015 0.281250 0.0
vt 0.347624 0.284211 0.0
vt 0.375000 0.187500 0.0
vt 0.625000 0.187500 0.0
vt 0.625000 0.281250 0.0
vt 0.375015 0.281250 0.0
vt 0.625000 0.187500 0.0
vt 0.695024 0.277004 0.0
vt 0.654254 0.283350 0.0
vt 0.625000 0.062500 0.0
vt 0.783985 0.170629 0.0
vt 0.695024 0.277004 0.0
vt 0.625000 0.187500 0.0
vt 0.375000 0.187500 0.0
vt 0.347624 0.284211 0.0
vt 0.308905 0.278254 0.0
vt 0.375000 0.187500 0.0
vt 0.308905 0.278254 0.0
vt 0.212725 0.174055 0.0
vt 0.375000 0.062500 0.0
vt 0.696442 0.539267 0.0
vt 0.701898 0.581256 0.0
vt 0.646329 0.572856 0.0
vt 0.649490 0.530816 0.0
vt 0.696442 0.539267 0.0
vt 0.701963 0.539165 0.0
vt 0.701898 0.581256 0.0
vt 0.298176 0.581588 0.0
vt 0.300729 0.539162 0.0
vt 0.306287 0.539608 0.0
vt 0.353070 0.533553 0.0
vt 0.353137 0.574937 0.0
vt 0.298176 0.581588 0.0
vt 0.306287 0.539608 0.0
vt 0.030531 0.977419 0.0
vt 0.033047 0.964773 0.0
vt 0.035190 0.964773 0.0
vt 0.035189 0.999963 0.0
vt 0.012646 0.995304 0.0
vt 0.035189 0.999963 0.0
vt 0.000000 0.999962 0.0
vt 0.000000 0.997819 0.0
vt 0.354560 0.999962 0.0
vt 0.377104 0.995303 0.0
vt 0.389751 0.997819 0.0
vt 0.389752 0.999962 0.0
vt 0.354560 0.999962 0.0
vt 0.354559 0.964770 0.0
vt 0.356702 0.964770 0.0
vt 0.359218 0.977418 0.0
vn 0.000000 -1.000000 0.000000
vn 0.000546 -0.001093 0.999999
vn 0.980785 0.000000 0.195090
vn 0.831469 0.000000 0.555571
vn 0.555571 0.000000 0.831469
vn 0.195091 0.000000 0.980785
vn 0.000000 0.000000 1.000000
vn 1.000000 -0.000001 -0.000000
vn 0.982583 -0.185825 -0.000001
vn 0.867019 -0.498274 -0.000000
vn 0.515224 -0.857056 -0.000000
vn 0.269769 -0.962925 -0.000000
vn -1.000000 -0.000000 -0.000001
vn 0.000000 0.769898 0.638167
vn 0.000163 0.000020 1.000000
vn 0.000000 0.000157 1.000000
vn 0.000070 -0.000311 1.000000
vn 0.000422 -0.001009 0.999999
vn -0.000422 -0.001009 0.999999
vn -0.000070 -0.000311 1.000000
vn -0.269769 -0.962925 -0.000000
vn -0.515224 -0.857056 -0.000000
vn -1.000000 0.000000 0.000001
vn 0.000000 1.000000 -0.000000
vn -0.000065 0.999995 -0.003175
vn 0.001278 0.999998 -0.001585
vn 1.000000 0.000000 0.000001
vn -0.000163 0.000020 1.000000
vn 1.000000 -0.000000 -0.000001
vn -0.867019 -0.498274 -0.000000
vn -0.982583 -0.185825 -0.000001
vn -1.000000 -0.000001 -0.000000
vn -0.195091 0.000000 0.980785
vn -0.555571 0.000000 0.831469
vn -0.831469 0.000000 0.555571
vn -0.980785 0.000000 0.195090
vn -1.000000 0.000001 0.000000
vn -1.000000 0.000000 0.000000
vn 1.000000 0.000001 0.000000
vn 1.000000 0.000000 0.000000
vn 0.000000 0.000000 -1.000000
vn 0.000000 -0.473398 -0.880849
vn -1.000000 -0.000490 -0.000624
vn 1.000000 0.000000 0.000002
vn -1.000000 0.000001 -0.000017
vn 1.000000 0.000001 -0.000017
vn 0.000005 -1.000000 -0.000000
vn -0.000000 -1.000000 0.000005
vn -0.000005 -1.000000 -0.000000
g arch_wall.png
usemtl arch_wall.png
s off
f 1/1/1 2/2/1 3/3/1 4/4/1
f 2/5/2 6/6/2 7/7/2 3/8/2
f 10/9/3 9/10/3 15/11/3 14/12/3
f 11/13/4 10/14/4 14/15/4 16/16/4
f 12/17/5 11/18/5 16/19/5 17/20/5
f 13/21/6 12/22/6 17/23/6 18/24/6
f 28/25/7 31/26/7 30/27/7 29/28/7
f 24/29/8 28/30/8 29/31/8 25/32/8
f 28/33/9 24/34/9 38/35/9 36/36/9
f 36/37/10 38/38/10 35/39/10 34/40/10
f 34/41/11 35/42/11 39/43/11 37/44/11
f 37/45/12 39/46/12 32/47/12 33/48/12
f 31/49/13 41/50/13 40/51/13 27/52/13
f 41/53/14 42/54/14 50/55/14 40/56/14
f 31/57/15 36/58/15 34/59/15 41/60/15
f 28/61/16 36/62/16 31/63/16
f 34/64/17 37/65/17 42/66/17 41/67/17
f 33/68/18 42/69/18 37/70/18
f 33/71/19 46/72/19 42/73/19
f 48/74/20 43/75/20 42/76/20 46/77/20
f 43/78/14 44/79/14 50/80/14 42/81/14
f 46/82/21 33/83/21 32/84/21 45/85/21
f 48/86/22 46/87/22 45/88/22 47/89/22
f 14/90/1 29/91/1 16/92/1
f 16/93/1 29/94/1 17/95/1
f 8/96/23 13/97/23 18/98/23 26/99/23
f 9/100/24 10/101/24 22/102/24 23/103/24
f 10/104/24 11/105/24 21/106/24 22/107/24
f 49/108/24 21/109/24 11/110/24
f 20/111/24 21/112/24 49/113/24
f 49/114/24 11/115/24 12/116/24
f 7/117/25 49/118/25 12/119/25 13/120/25
f 6/121/24 19/122/24 20/123/24 49/124/24
f 6/125/26 49/126/26 7/127/26
f 5/128/27 58/129/27 61/130/27 19/131/27
f 63/132/1 62/133/1 55/134/1
f 65/135/1 63/136/1 55/137/1
f 56/138/16 53/139/16 52/140/16
f 53/141/28 43/142/28 48/143/28 52/144/28
f 53/145/29 57/146/29 44/147/29 43/148/29
f 52/149/30 48/150/30 47/151/30 51/152/30
f 56/153/31 52/154/31 51/155/31 60/156/31
f 60/157/32 59/158/32 55/159/32 56/160/32
f 56/161/7 55/162/7 54/163/7 53/164/7
f 19/165/33 61/166/33 62/167/33 20/168/33
f 20/169/34 62/170/34 63/171/34 21/172/34
f 21/173/35 63/174/35 65/175/35 22/176/35
f 22/177/36 65/178/36 64/179/36 23/180/36
f 32/181/7 39/182/7 45/183/7
f 35/184/7 47/185/7 45/186/7 39/187/7
f 35/188/7 38/189/7 51/190/7 47/191/7
f 24/192/7 60/193/7 51/194/7 38/195/7
f 24/196/7 25/197/7 59/198/7 60/199/7
f 23/200/7 64/201/7 59/202/7
f 9/203/7 25/204/7 15/205/7
f 9/206/7 23/207/7 59/208/7 25/209/7
f 26/210/37 27/211/37 67/212/37 66/213/37
f 40/214/38 68/215/38 67/216/38 27/217/38
f 8/218/38 26/219/38 66/220/38 69/221/38
f 57/222/39 58/223/39 71/224/39 70/225/39
f 44/226/40 57/227/40 70/228/40 72/229/40
f 50/230/24 44/231/24 72/232/24 73/233/24
f 58/234/40 5/235/40 74/236/40 71/237/40
f 50/238/24 73/239/24 68/240/24 40/241/24
f 67/242/41 75/243/41 76/244/41 66/245/41
f 75/246/41 70/247/41 71/248/41 76/249/41
f 67/250/41 68/251/41 73/252/41 75/253/41
f 70/254/41 75/255/41 73/256/41 72/257/41
f 71/258/41 74/259/41 76/260/41
f 66/261/41 76/262/41 69/263/41
f 69/264/41 76/265/41 74/266/41
f 4/267/38 8/268/38 69/269/38
f 1/270/40 74/271/40 5/272/40
f 1/273/42 4/274/42 69/275/42 74/276/42
f 4/277/23 13/278/23 8/279/23
f 3/280/43 7/281/43 13/282/43 4/283/43
f 1/284/44 5/285/44 19/286/44
f 1/287/40 19/288/40 6/289/40 2/290/40
f 18/291/38 31/292/38 27/293/38 26/294/38
f 18/295/45 30/296/45 31/297/45
f 53/298/46 54/299/46 61/300/46
f 58/301/40 57/302/40 53/303/40 61/304/40
f 14/305/47 15/306/47 25/307/47 29/308/47
f 17/309/48 29/310/48 30/311/48 18/312/48
f 55/313/48 62/314/48 61/315/48 54/316/48
f 55/317/49 59/318/49 64/319/49 65/320/49
