# Blender3D v245 OBJ File: arch_door.blend
# www.blender3d.org
mtllib arch_door.mtl
o Cube
v 1.750000 5.000000 -0.092711
v 1.750000 -0.000000 -0.092711
v 0.875000 6.000000 -0.092711
v -0.000000 -0.000000 -0.092711
v -0.875000 6.000000 -0.092711
v -1.750000 -0.000000 -0.092711
v -1.750000 5.000000 -0.092711
v 1.750000 5.000000 -0.400316
v 1.750000 -0.000000 -0.400316
v 0.875000 6.000000 -0.400317
v -1.750000 5.000000 -0.400316
v -0.875000 6.000000 -0.400317
v -1.750000 -0.000000 -0.400316
v -1.290098 2.068567 -0.194567
v -1.261696 2.000000 -0.194567
v -1.290098 1.931433 -0.194567
v -1.358665 1.903032 -0.194567
v -1.427232 1.931433 -0.194567
v -1.455633 2.000000 -0.194567
v -1.427232 2.068567 -0.194567
v -1.358665 2.096968 -0.194567
v -1.290098 2.068567 0.247017
v -1.261696 2.000000 0.247017
v -1.290098 1.931433 0.247017
v -1.358665 1.903032 0.247017
v -1.427232 1.931433 0.247017
v -1.455633 2.000000 0.247017
v -1.427232 2.068567 0.247017
v -1.358665 2.096968 0.247017
v -1.358665 2.000000 -0.194567
v -1.358665 2.000000 0.247017
v -1.261696 2.000000 0.092883
v -1.290098 2.068567 0.092883
v -1.290098 1.931433 0.092883
v -1.066286 2.028597 0.092883
v -1.094687 1.960030 0.092883
v -1.094687 2.097164 0.092883
v -1.094687 1.960030 0.247017
v -1.094687 2.097164 0.247017
v -1.066286 2.028597 0.247017
v -0.884978 2.063801 0.247017
v -0.856577 1.995234 0.247017
v -0.884978 1.926667 0.247017
v -0.884978 2.063801 0.092883
v -0.884978 1.926667 0.092883
v -0.856577 1.995234 0.092883
v -0.856577 1.995234 -0.592883
v -0.884978 1.926666 -0.592883
v -0.884978 2.063800 -0.592883
v -0.884978 1.926666 -0.747017
v -0.856577 1.995234 -0.747017
v -0.884978 2.063800 -0.747017
v -1.066286 2.028596 -0.747017
v -1.094687 2.097163 -0.747017
v -1.094687 1.960029 -0.747017
v -1.094687 2.097163 -0.592883
v -1.094687 1.960029 -0.592883
v -1.066286 2.028596 -0.592883
v -1.290098 1.931432 -0.592883
v -1.290098 2.068567 -0.592883
v -1.261696 2.000000 -0.592883
v -1.358665 2.000000 -0.747017
v -1.358665 2.000000 -0.305433
v -1.358665 2.096968 -0.747017
v -1.427232 2.068567 -0.747017
v -1.455633 2.000000 -0.747017
v -1.427232 1.931432 -0.747017
v -1.358665 1.903031 -0.747017
v -1.290098 1.931432 -0.747017
v -1.261696 2.000000 -0.747017
v -1.290098 2.068567 -0.747017
v -1.358665 2.096968 -0.305433
v -1.427232 2.068567 -0.305433
v -1.455633 2.000000 -0.305433
v -1.427232 1.931432 -0.305433
v -1.358665 1.903031 -0.305433
v -1.290098 1.931432 -0.305433
v -1.261696 2.000000 -0.305433
v -1.290098 2.068567 -0.305433
vt 0.968750 0.468750 0.0
vt 0.968750 0.156250 0.0
vt 1.000000 0.156250 0.0
vt 1.000000 0.468750 0.0
vt 0.968750 0.562500 0.0
vt 0.968750 0.468750 0.0
vt 1.000000 0.468750 0.0
vt 1.000000 0.562500 0.0
vt 0.968750 0.656250 0.0
vt 1.000000 0.656250 0.0
vt 1.000000 0.750000 0.0
vt 0.968750 0.750000 0.0
vt 0.968750 0.750000 0.0
vt 1.000000 0.750000 0.0
vt 1.000000 1.000000 0.0
vt 0.968750 1.000000 0.0
vt 0.968750 0.656250 0.0
vt 0.968750 0.562500 0.0
vt 1.000000 0.562500 0.0
vt 1.000000 0.656250 0.0
vt 0.968750 0.156250 0.0
vt 0.968750 0.000000 0.0
vt 1.000000 0.000000 0.0
vt 1.000000 0.156250 0.0
vt 0.000000 0.875000 0.0
vt 0.000000 0.250000 0.0
vt 0.437500 0.250000 0.0
vt 0.437500 0.875000 0.0
vt 0.000000 0.875000 0.0
vt 0.437500 0.875000 0.0
vt 0.312500 1.000000 0.0
vt 0.125000 1.000000 0.0
vt 0.715879 0.814567 0.0
vt 0.715879 0.828574 0.0
vt 0.701872 0.814567 0.0
vt 0.715879 0.772547 0.0
vt 0.743893 0.786554 0.0
vt 0.729886 0.786554 0.0
vt 0.715879 0.814567 0.0
vt 0.701872 0.814567 0.0
vt 0.701872 0.800560 0.0
vt 0.715879 0.772547 0.0
vt 0.743893 0.772547 0.0
vt 0.743893 0.786554 0.0
vt 0.715879 0.814567 0.0
vt 0.701872 0.800560 0.0
vt 0.715879 0.786554 0.0
vt 0.715879 0.772547 0.0
vt 0.729886 0.758539 0.0
vt 0.743893 0.772547 0.0
vt 0.715879 0.814567 0.0
vt 0.715879 0.786554 0.0
vt 0.729886 0.786554 0.0
vt 0.715879 0.772547 0.0
vt 0.715879 0.758539 0.0
vt 0.729886 0.758539 0.0
vt 0.715879 0.814567 0.0
vt 0.729886 0.786554 0.0
vt 0.743893 0.800560 0.0
vt 0.715879 0.772547 0.0
vt 0.701872 0.772547 0.0
vt 0.715879 0.758539 0.0
vt 0.715879 0.814567 0.0
vt 0.743893 0.800560 0.0
vt 0.743893 0.814567 0.0
vt 0.715879 0.772547 0.0
vt 0.701872 0.786554 0.0
vt 0.701872 0.772547 0.0
vt 0.715879 0.814567 0.0
vt 0.743893 0.814567 0.0
vt 0.729886 0.828574 0.0
vt 0.715879 0.772547 0.0
vt 0.715879 0.786554 0.0
vt 0.701872 0.786554 0.0
vt 0.715879 0.814567 0.0
vt 0.729886 0.828574 0.0
vt 0.715879 0.828574 0.0
vt 0.715879 0.772547 0.0
vt 0.729886 0.786554 0.0
vt 0.715879 0.786554 0.0
vt 0.785914 0.618470 0.0
vt 0.701872 0.618470 0.0
vt 0.701872 0.604463 0.0
vt 0.785914 0.604463 0.0
vt 0.785914 0.604463 0.0
vt 0.701872 0.604463 0.0
vt 0.701872 0.590456 0.0
vt 0.785914 0.590456 0.0
vt 0.785914 0.590456 0.0
vt 0.701872 0.590456 0.0
vt 0.701872 0.576449 0.0
vt 0.785914 0.576449 0.0
vt 0.785914 0.576449 0.0
vt 0.701872 0.576449 0.0
vt 0.701872 0.562442 0.0
vt 0.785914 0.562442 0.0
vt 0.785914 0.548435 0.0
vt 0.729886 0.548435 0.0
vt 0.729886 0.534428 0.0
vt 0.785914 0.534428 0.0
vt 0.785914 0.646484 0.0
vt 0.729886 0.646484 0.0
vt 0.729886 0.632477 0.0
vt 0.785914 0.632477 0.0
vt 0.729886 0.632477 0.0
vt 0.701872 0.618470 0.0
vt 0.785914 0.618470 0.0
vt 0.785914 0.632477 0.0
vt 0.729886 0.632477 0.0
vt 0.785914 0.618470 0.0
vt 0.729886 0.632477 0.0
vt 0.701872 0.632477 0.0
vt 0.701872 0.618470 0.0
vt 0.729886 0.548435 0.0
vt 0.785914 0.562442 0.0
vt 0.701872 0.562442 0.0
vt 0.701872 0.548435 0.0
vt 0.729886 0.548435 0.0
vt 0.701872 0.562442 0.0
vt 0.729886 0.548435 0.0
vt 0.785914 0.548435 0.0
vt 0.785914 0.562442 0.0
vt 0.701872 0.716518 0.0
vt 0.715879 0.702511 0.0
vt 0.743893 0.702511 0.0
vt 0.743893 0.716518 0.0
vt 0.701872 0.702511 0.0
vt 0.701872 0.688505 0.0
vt 0.743893 0.688505 0.0
vt 0.743893 0.702511 0.0
vt 0.701872 0.744533 0.0
vt 0.701872 0.716518 0.0
vt 0.743893 0.716518 0.0
vt 0.743893 0.744533 0.0
vt 0.701872 0.688505 0.0
vt 0.701872 0.660491 0.0
vt 0.743893 0.660491 0.0
vt 0.743893 0.688505 0.0
vt 0.715879 0.758539 0.0
vt 0.701872 0.744533 0.0
vt 0.743893 0.744533 0.0
vt 0.743893 0.758539 0.0
vt 0.701872 0.660491 0.0
vt 0.701872 0.646484 0.0
vt 0.743893 0.646484 0.0
vt 0.743893 0.660491 0.0
vt 0.743893 0.660491 0.0
vt 0.743893 0.646484 0.0
vt 0.785914 0.646484 0.0
vt 0.771907 0.660491 0.0
vt 0.743893 0.758539 0.0
vt 0.743893 0.744533 0.0
vt 0.771907 0.744533 0.0
vt 0.785914 0.758539 0.0
vt 0.743893 0.688505 0.0
vt 0.743893 0.660491 0.0
vt 0.771907 0.660491 0.0
vt 0.771907 0.688505 0.0
vt 0.743893 0.744533 0.0
vt 0.743893 0.716518 0.0
vt 0.771907 0.716518 0.0
vt 0.771907 0.744533 0.0
vt 0.743893 0.702511 0.0
vt 0.743893 0.688505 0.0
vt 0.771907 0.688505 0.0
vt 0.785914 0.702511 0.0
vt 0.743893 0.716518 0.0
vt 0.743893 0.702511 0.0
vt 0.785914 0.702511 0.0
vt 0.771907 0.716518 0.0
vt 0.771907 0.688505 0.0
vt 0.771907 0.660491 0.0
vt 0.785914 0.660491 0.0
vt 0.785914 0.688505 0.0
vt 0.785914 0.716518 0.0
vt 0.785914 0.744533 0.0
vt 0.771907 0.744533 0.0
vt 0.771907 0.716518 0.0
vt 0.437500 0.875000 0.0
vt 0.312500 1.000000 0.0
vt 0.125000 1.000000 0.0
vt 0.000000 0.875000 0.0
vt 0.437500 0.875000 0.0
vt 0.000000 0.875000 0.0
vt 0.000000 0.250000 0.0
vt 0.437500 0.250000 0.0
vt 0.785914 0.716518 0.0
vt 0.785914 0.744533 0.0
vt 0.771907 0.744533 0.0
vt 0.771907 0.716518 0.0
vt 0.771907 0.688505 0.0
vt 0.771907 0.660491 0.0
vt 0.785914 0.660491 0.0
vt 0.785914 0.688505 0.0
vt 0.743893 0.716518 0.0
vt 0.743893 0.702511 0.0
vt 0.785914 0.702511 0.0
vt 0.771907 0.716518 0.0
vt 0.743893 0.702511 0.0
vt 0.743893 0.688505 0.0
vt 0.771907 0.688505 0.0
vt 0.785914 0.702511 0.0
vt 0.743893 0.744533 0.0
vt 0.743893 0.716518 0.0
vt 0.771907 0.716518 0.0
vt 0.771907 0.744533 0.0
vt 0.743893 0.688505 0.0
vt 0.743893 0.660491 0.0
vt 0.771907 0.660491 0.0
vt 0.771907 0.688505 0.0
vt 0.743893 0.758539 0.0
vt 0.743893 0.744533 0.0
vt 0.771907 0.744533 0.0
vt 0.785914 0.758539 0.0
vt 0.743893 0.660491 0.0
vt 0.743893 0.646484 0.0
vt 0.785914 0.646484 0.0
vt 0.771907 0.660491 0.0
vt 0.701872 0.660491 0.0
vt 0.701872 0.646484 0.0
vt 0.743893 0.646484 0.0
vt 0.743893 0.660491 0.0
vt 0.715879 0.758539 0.0
vt 0.701872 0.744533 0.0
vt 0.743893 0.744533 0.0
vt 0.743893 0.758539 0.0
vt 0.701872 0.688505 0.0
vt 0.701872 0.660491 0.0
vt 0.743893 0.660491 0.0
vt 0.743893 0.688505 0.0
vt 0.701872 0.744533 0.0
vt 0.701872 0.716518 0.0
vt 0.743893 0.716518 0.0
vt 0.743893 0.744533 0.0
vt 0.701872 0.702511 0.0
vt 0.701872 0.688505 0.0
vt 0.743893 0.688505 0.0
vt 0.743893 0.702511 0.0
vt 0.701872 0.716518 0.0
vt 0.715879 0.702511 0.0
vt 0.743893 0.702511 0.0
vt 0.743893 0.716518 0.0
vt 0.729886 0.548435 0.0
vt 0.785914 0.548435 0.0
vt 0.785914 0.562442 0.0
vt 0.701872 0.548435 0.0
vt 0.729886 0.548435 0.0
vt 0.701872 0.562442 0.0
vt 0.729886 0.548435 0.0
vt 0.785914 0.562442 0.0
vt 0.701872 0.562442 0.0
vt 0.729886 0.632477 0.0
vt 0.701872 0.632477 0.0
vt 0.701872 0.618470 0.0
vt 0.785914 0.632477 0.0
vt 0.729886 0.632477 0.0
vt 0.785914 0.618470 0.0
vt 0.729886 0.632477 0.0
vt 0.701872 0.618470 0.0
vt 0.785914 0.618470 0.0
vt 0.785914 0.646484 0.0
vt 0.729886 0.646484 0.0
vt 0.729886 0.632477 0.0
vt 0.785914 0.632477 0.0
vt 0.785914 0.548435 0.0
vt 0.729886 0.548435 0.0
vt 0.729886 0.534428 0.0
vt 0.785914 0.534428 0.0
vt 0.785914 0.576449 0.0
vt 0.701872 0.576449 0.0
vt 0.701872 0.562442 0.0
vt 0.785914 0.562442 0.0
vt 0.785914 0.590456 0.0
vt 0.701872 0.590456 0.0
vt 0.701872 0.576449 0.0
vt 0.785914 0.576449 0.0
vt 0.785914 0.604463 0.0
vt 0.701872 0.604463 0.0
vt 0.701872 0.590456 0.0
vt 0.785914 0.590456 0.0
vt 0.785914 0.618470 0.0
vt 0.701872 0.618470 0.0
vt 0.701872 0.604463 0.0
vt 0.785914 0.604463 0.0
vt 0.715879 0.772547 0.0
vt 0.729886 0.786554 0.0
vt 0.715879 0.786554 0.0
vt 0.715879 0.814567 0.0
vt 0.729886 0.828574 0.0
vt 0.715879 0.828574 0.0
vt 0.715879 0.772547 0.0
vt 0.715879 0.786554 0.0
vt 0.701872 0.786554 0.0
vt 0.715879 0.814567 0.0
vt 0.743893 0.814567 0.0
vt 0.729886 0.828574 0.0
vt 0.715879 0.772547 0.0
vt 0.701872 0.786554 0.0
vt 0.701872 0.772547 0.0
vt 0.715879 0.814567 0.0
vt 0.743893 0.800560 0.0
vt 0.743893 0.814567 0.0
vt 0.715879 0.772547 0.0
vt 0.701872 0.772547 0.0
vt 0.715879 0.758539 0.0
vt 0.715879 0.814567 0.0
vt 0.729886 0.786554 0.0
vt 0.743893 0.800560 0.0
vt 0.715879 0.772547 0.0
vt 0.715879 0.758539 0.0
vt 0.729886 0.758539 0.0
vt 0.715879 0.814567 0.0
vt 0.715879 0.786554 0.0
vt 0.729886 0.786554 0.0
vt 0.715879 0.772547 0.0
vt 0.729886 0.758539 0.0
vt 0.743893 0.772547 0.0
vt 0.715879 0.814567 0.0
vt 0.701872 0.800560 0.0
vt 0.715879 0.786554 0.0
vt 0.715879 0.772547 0.0
vt 0.743893 0.772547 0.0
vt 0.743893 0.786554 0.0
vt 0.715879 0.814567 0.0
vt 0.701872 0.814567 0.0
vt 0.701872 0.800560 0.0
vt 0.715879 0.772547 0.0
vt 0.743893 0.786554 0.0
vt 0.729886 0.786554 0.0
vt 0.715879 0.814567 0.0
vt 0.715879 0.828574 0.0
vt 0.701872 0.814567 0.0
vn 1.000000 0.000000 0.000000
vn 0.752577 0.658505 0.000000
vn -0.752577 0.658505 0.000000
vn -1.000000 0.000000 0.000000
vn 0.000000 1.000000 0.000000
vn 0.000000 -1.000000 0.000000
vn 0.000000 -0.000000 -1.000000
vn 0.000000 0.000000 1.000000
vn -0.382684 -0.923879 -0.000000
vn -0.923880 -0.382683 -0.000000
vn -0.923880 0.382683 0.000000
vn -0.382684 0.923879 0.000000
vn 0.923880 0.382683 0.000000
vn 0.923880 -0.382683 0.000000
vn 0.382683 -0.923880 0.000000
vn 0.382684 0.923880 -0.000000
vn 0.382684 0.923879 0.000000
vn 0.382683 0.923880 0.000000
vn 0.144800 -0.989461 0.000000
vn -0.144799 0.989461 -0.000000
vn 0.157115 0.987580 0.000000
vn -0.157115 -0.987580 0.000000
vn 0.923879 0.382684 0.000000
vn 0.923879 -0.382684 0.000000
vn -0.923879 -0.382685 0.000000
vn -0.000000 -0.000001 -1.000000
vn 0.157114 0.987580 0.000000
vn 0.000000 0.000001 1.000000
vn 0.144799 -0.989461 -0.000000
vn -0.382683 -0.923880 0.000000
vn -0.382684 -0.923880 -0.000000
vn -0.382683 0.923880 0.000000
vn 0.382684 -0.923879 0.000000
usemtl Material.004_door_uv.png
s off
f 1/1/1 2/2/1 9/3/1 8/4/1
f 3/5/2 1/6/2 8/7/2 10/8/2
f 5/9/3 12/10/3 11/11/3 7/12/3
f 7/13/4 11/14/4 13/15/4 6/16/4
f 5/17/5 3/18/5 10/19/5 12/20/5
f 2/21/6 6/22/6 13/23/6 9/24/6
f 8/25/7 9/26/7 13/27/7 11/28/7
f 8/29/7 11/30/7 12/31/7 10/32/7
f 30/33/7 14/34/7 15/35/7
f 31/36/8 23/37/8 22/38/8
f 30/39/7 15/40/7 16/41/7
f 31/42/8 24/43/8 23/44/8
f 30/45/7 16/46/7 17/47/7
f 31/48/8 25/49/8 24/50/8
f 30/51/7 17/52/7 18/53/7
f 31/54/8 26/55/8 25/56/8
f 30/57/7 18/58/7 19/59/7
f 31/60/8 27/61/8 26/62/8
f 30/63/7 19/64/7 20/65/7
f 31/66/8 28/67/8 27/68/8
f 30/69/7 20/70/7 21/71/7
f 31/72/8 29/73/8 28/74/8
f 30/75/7 21/76/7 14/77/7
f 31/78/8 22/79/8 29/80/8
f 17/81/9 25/82/9 26/83/9 18/84/9
f 18/85/10 26/86/10 27/87/10 19/88/10
f 19/89/11 27/90/11 28/91/11 20/92/11
f 20/93/12 28/94/12 29/95/12 21/96/12
f 14/97/13 33/98/13 32/99/13 15/100/13
f 15/101/14 32/102/14 34/103/14 16/104/14
f 34/105/15 25/106/15 17/107/15
f 16/108/15 34/109/15 17/110/15
f 34/111/15 24/112/15 25/113/15
f 33/114/16 21/115/16 29/116/16
f 22/117/17 33/118/17 29/119/17
f 33/120/18 14/121/18 21/122/18
f 34/123/7 32/124/7 35/125/7 36/126/7
f 32/127/7 33/128/7 37/129/7 35/130/7
f 24/131/19 34/132/19 36/133/19 38/134/19
f 33/135/20 22/136/20 39/137/20 37/138/20
f 23/139/8 24/140/8 38/141/8 40/142/8
f 22/143/8 23/144/8 40/145/8 39/146/8
f 39/147/8 40/148/8 42/149/8 41/150/8
f 40/151/8 38/152/8 43/153/8 42/154/8
f 37/155/21 39/156/21 41/157/21 44/158/21
f 38/159/22 36/160/22 45/161/22 43/162/22
f 35/163/7 37/164/7 44/165/7 46/166/7
f 36/167/7 35/168/7 46/169/7 45/170/7
f 44/171/23 41/172/23 42/173/23 46/174/23
f 46/175/24 42/176/24 43/177/24 45/178/24
f 1/179/8 3/180/8 5/181/8 7/182/8
f 1/183/8 7/184/8 6/185/8 2/186/8
f 47/187/11 51/188/11 50/189/11 48/190/11
f 49/191/25 52/192/25 51/193/25 47/194/25
f 57/195/7 58/196/7 47/197/7 48/198/7
f 58/199/26 56/200/26 49/201/26 47/202/26
f 55/203/27 57/204/27 48/205/27 50/206/27
f 56/207/22 54/208/22 52/209/22 49/210/22
f 53/211/8 55/212/8 50/213/8 51/214/8
f 54/215/28 53/216/28 51/217/28 52/218/28
f 71/219/28 70/220/28 53/221/28 54/222/28
f 70/223/8 69/224/8 55/225/8 53/226/8
f 60/227/29 71/228/29 54/229/29 56/230/29
f 69/231/20 59/232/20 57/233/20 55/234/20
f 61/235/26 60/236/26 56/237/26 58/238/26
f 59/239/7 61/240/7 58/241/7 57/242/7
f 60/243/30 79/244/30 72/245/30
f 71/246/9 60/247/9 64/248/9
f 60/249/31 72/250/31 64/251/31
f 59/252/32 69/253/32 68/254/32
f 77/255/32 59/256/32 76/257/32
f 59/258/32 68/259/32 76/260/32
f 78/261/11 61/262/11 59/263/11 77/264/11
f 79/265/10 60/266/10 61/267/10 78/268/10
f 73/269/33 65/270/33 64/271/33 72/272/33
f 74/273/14 66/274/14 65/275/14 73/276/14
f 75/277/13 67/278/13 66/279/13 74/280/13
f 76/281/17 68/282/17 67/283/17 75/284/17
f 62/285/28 71/286/28 64/287/28
f 63/288/7 72/289/7 79/290/7
f 62/291/28 64/292/28 65/293/28
f 63/294/7 73/295/7 72/296/7
f 62/297/28 65/298/28 66/299/28
f 63/300/7 74/301/7 73/302/7
f 62/303/8 66/304/8 67/305/8
f 63/306/7 75/307/7 74/308/7
f 62/309/8 67/310/8 68/311/8
f 63/312/7 76/313/7 75/314/7
f 62/315/8 68/316/8 69/317/8
f 63/318/7 77/319/7 76/320/7
f 62/321/8 69/322/8 70/323/8
f 63/324/7 78/325/7 77/326/7
f 62/327/28 70/328/28 71/329/28
f 63/330/7 79/331/7 78/332/7
f 2 4
f 4 6
