# Blender v2.69 (sub 0) OBJ File: ''
# www.blender.org
v 2.000000 -1.000000 -1.182620
v 2.000000 -1.000000 -0.000000
v -2.000000 -1.000000 -0.000000
v -2.000000 -1.000000 -1.182620
v 1.999999 1.000000 0.000001
v -2.001722 1.005120 0.004379
v -1.502559 1.000000 -1.903761
v -1.461574 1.000000 -2.109808
v -1.461574 6.000000 -2.109807
v -1.502559 6.000000 -1.903761
v -1.619275 1.000000 -1.729084
v -1.619275 6.000000 -1.729083
v -1.793953 1.000000 -1.612368
v -1.793953 6.000000 -1.612367
v -2.000000 1.000000 -1.571382
v -2.000000 6.000000 -1.571382
v -1.426659 6.373342 -1.536467
v -2.000000 6.373342 -1.536467
v -2.000000 6.000000 -1.536467
v -1.426660 6.000000 -1.536467
v -1.426660 6.373342 -2.109807
v -1.426660 6.000000 -2.109807
v -1.324116 6.915555 -2.109807
v -1.324116 6.915555 -1.536552
v -1.074304 7.350239 -2.109807
v -1.074304 7.350239 -1.536637
v -0.610787 7.628885 -2.109807
v -0.610787 7.628885 -1.536722
v 0.000000 7.800001 -2.109807
v 0.000000 7.800001 -1.536808
v -2.000000 8.137514 -1.536467
v -2.000000 8.612755 -2.109807
v -2.000000 6.373342 -2.109807
v 0.000000 8.137514 -1.536467
v 0.000000 8.612755 -2.109807
v 0.610787 7.628885 -1.536722
v 1.074304 7.350239 -1.536637
v 2.000000 8.137514 -1.536467
v 2.000000 8.612755 -2.109807
v 0.610787 7.628885 -2.109807
v 1.074304 7.350239 -2.109807
v -2.000000 1.000000 -2.109808
v -2.000000 6.000000 -2.109807
v 1.502559 1.000000 -1.903761
v 1.461574 1.000000 -2.109808
v 1.619275 1.000000 -1.729084
v 0.000000 1.000000 -1.612368
v 1.793953 1.000000 -1.612368
v 2.000000 1.000000 -1.571382
v 2.000000 1.000000 -2.109808
v 2.000000 6.000000 -2.109807
v 2.000000 6.000000 -1.571382
v 1.619275 6.000000 -1.729083
v 1.793953 6.000000 -1.612367
v 1.426660 6.000000 -1.536467
v 1.502559 6.000000 -1.903761
v 1.426659 6.373342 -1.536467
v 2.000000 6.373342 -1.536467
v 1.324116 6.915555 -1.536552
v 2.000000 6.373342 -2.109807
v 1.324116 6.915555 -2.109807
v 1.426660 6.373342 -2.109807
v 1.426660 6.000000 -2.109807
v 2.000000 6.000000 -1.536467
v 1.461574 6.000000 -2.109807
v -2.000000 6.373342 -2.257488
v -2.000000 6.000000 -2.257488
v -2.000000 8.612755 -2.257488
v -2.000000 1.000000 -2.257489
v 2.000000 6.000000 -2.257488
v 2.000000 6.373342 -2.257488
v 2.000000 8.612755 -2.257488
v 0.000000 8.612755 -2.257488
v 2.000000 1.000000 -2.257488
v 0.000000 6.373342 -2.257488
v 0.000000 6.000000 -2.257488
vt 0.375000 0.187500
vt 0.375000 0.062500
vt 0.625000 0.187500
vt 0.257812 0.664062
vt 0.257812 0.785498
vt 0.023438 0.785656
vt 0.968750 0.804688
vt 0.992188 0.804688
vt 0.968750 0.968750
vt 0.945312 0.804688
vt 0.945312 0.968750
vt 0.921875 0.804688
vt 0.921875 0.968750
vt 0.898438 0.804688
vt 0.898438 0.968750
vt 0.385551 0.804996
vt 0.343750 0.804688
vt 0.343750 0.781250
vt 0.058104 0.964773
vt 0.058104 0.999963
vt 0.035190 0.964773
vt 0.091973 0.964773
vt 0.091973 0.999958
vt 0.122745 0.964773
vt 0.122745 0.999953
vt 0.155939 0.964773
vt 0.155939 0.999948
vt 0.194872 0.964773
vt 0.701898 0.581256
vt 0.625000 0.750000
vt 0.625000 0.687500
vt 0.500000 0.750000
vt 0.398076 0.846745
vt 0.343750 0.937500
vt 0.421875 0.882812
vt 0.468750 0.906250
vt 0.500000 0.914062
vt 0.500000 0.937500
vt 0.531250 0.906250
vt 0.578125 0.882812
vt 0.656250 0.937500
vt 0.375000 0.750000
vt 0.375000 0.687500
vt 0.233805 0.999948
vt 0.194872 0.999943
vt 0.267000 0.999953
vt 0.233804 0.964772
vt 0.030531 0.977419
vt 0.035189 0.999963
vt 0.023367 0.988140
vt 0.012646 0.995304
vt 0.654254 0.283350
vt 0.695024 0.277004
vt 0.649490 0.530816
vt 0.070312 0.921875
vt 0.067638 0.907482
vt 0.210938 0.921875
vt 0.054652 0.891190
vt 0.213844 0.907244
vt 0.141042 0.882812
vt 0.227941 0.890830
vt 0.245564 0.881956
vt 0.036219 0.882260
vt 0.257812 0.882812
vt 0.347624 0.284211
vt 0.353070 0.533553
vt 0.308905 0.278254
vt 0.366382 0.988139
vt 0.377104 0.995303
vt 0.354560 0.999962
vt 0.359218 0.977418
vt 0.614450 0.804996
vt 0.656250 0.804688
vt 0.601924 0.846745
vt 0.298176 0.581588
vt 0.353137 0.574937
vt 0.297773 0.999958
vt 0.267000 0.964772
vt 0.331644 0.999962
vt 0.297772 0.964771
vt 0.331643 0.964771
vt 0.354559 0.964770
vt 0.617188 0.781250
vt 0.656250 0.781250
vt 0.890625 0.804688
vt 0.890625 0.968750
vt 0.867188 0.804688
vt 0.867188 0.968750
vt 0.843750 0.804688
vt 0.843750 0.968750
vt 0.820312 0.804688
vt 0.820312 0.968750
vt 0.796875 0.804688
vt 0.843750 0.781583
vt 0.811057 0.773483
vt 0.876420 0.773429
vt 0.785963 0.759178
vt 0.901523 0.759176
vt 0.772181 0.736329
vt 0.766193 0.707471
vt 0.921279 0.707467
vt 0.765625 0.687500
vt 0.921875 0.414062
vt 0.937500 0.687500
vt 0.921875 0.687500
vt 0.765625 0.414062
vt 0.750000 0.687500
vt 0.646329 0.572856
vt 0.625000 0.531250
vt 0.625000 0.671875
vt 0.625000 0.281250
vt 0.375000 0.562500
vt 0.375000 0.671875
vt 0.500000 0.687500
vt 0.500000 0.671875
vt 0.375000 0.531250
vt 0.625000 0.562500
vt 0.500000 0.562500
vt 0.500000 0.531250
vt 0.375015 0.281250
vt 0.625000 0.062500
vt 0.783985 0.170629
vt 0.696442 0.539267
vt 0.701963 0.539165
vt 0.300729 0.539162
vt 0.306287 0.539608
vt 0.033047 0.964773
vt 0.000000 0.997819
vt 0.389751 0.997819
vt 0.356702 0.964770
vt 0.023438 0.664062
vt 0.992188 0.968750
vt 0.382812 0.781250
vt 0.023438 0.882812
vt 0.796875 0.968750
vt 0.915283 0.736302
vt 0.212725 0.174055
vt 0.000000 0.999962
vt 0.389752 0.999962
vn 0.000000 -1.000000 -0.000000
vn 0.001094 -0.000001 0.999999
vn 0.980786 0.000000 0.195089
vn 0.831468 -0.000000 0.555573
vn 0.555570 -0.000000 0.831470
vn 0.195093 0.000000 0.980785
vn 0.000000 -0.000000 1.000000
vn 1.000000 0.000000 -0.000002
vn 0.982582 -0.185827 -0.000002
vn 0.867019 -0.498275 0.000000
vn 0.515224 -0.857056 0.000000
vn 0.269769 -0.962925 0.000000
vn -1.000000 0.000000 0.000000
vn 0.000000 0.769898 0.638167
vn 0.000126 -0.000000 1.000000
vn 0.000000 0.000157 1.000000
vn 0.000184 -0.000000 1.000000
vn 0.000423 -0.001010 0.999999
vn -0.000423 -0.001010 0.999999
vn -0.000184 -0.000000 1.000000
vn -0.269769 -0.962925 0.000000
vn -0.515224 -0.857055 0.000000
vn 0.000000 1.000000 0.000001
vn 0.000000 1.000000 0.000003
vn 0.000000 1.000000 0.000000
vn 0.000000 1.000000 -0.000001
vn 0.000000 0.999995 -0.003167
vn 0.001278 0.999998 -0.001585
vn 1.000000 0.000000 0.000000
vn -0.000126 -0.000000 1.000000
vn -0.867020 -0.498274 0.000000
vn -0.982583 -0.185825 0.000000
vn -1.000000 0.000000 -0.000002
vn -0.195093 0.000000 0.980785
vn -0.555570 -0.000000 0.831470
vn -0.831468 -0.000000 0.555573
vn -0.980786 0.000000 0.195089
vn 0.000000 0.000000 -1.000000
vn 0.000000 -0.473398 -0.880849
vn -0.999999 -0.000857 -0.001090
vn 0.000000 -1.000000 -0.000008
vn 0.000000 -0.002184 0.999998
vn 0.980785 -0.000000 0.195090
vn 0.831470 0.000000 0.555570
vn 0.555571 -0.000000 0.831469
vn 0.195089 -0.000000 0.980786
vn 1.000000 -0.000002 0.000000
vn 0.982583 -0.185825 0.000000
vn 0.867020 -0.498274 0.000000
vn 0.515224 -0.857055 0.000000
vn 0.000235 0.000060 1.000000
vn 0.000000 -0.000502 1.000000
vn -0.515224 -0.857056 0.000000
vn -0.000646 0.999995 -0.003250
vn -0.000235 0.000060 1.000000
vn -0.867019 -0.498275 0.000000
vn -0.982583 -0.185827 -0.000002
vn -1.000000 -0.000002 0.000000
vn -0.195089 -0.000000 0.980786
vn -0.555571 -0.000000 0.831469
vn -0.831470 -0.000000 0.555570
vn -0.980785 -0.000000 0.195090
vn 1.000000 0.000000 0.000001
s off
f 1/1/1 2/2/1 4/3/1
f 2/4/2 5/5/2 6/6/2
f 7/7/3 8/8/3 10/9/3
f 11/10/4 7/7/4 12/11/4
f 13/12/5 11/10/5 14/13/5
f 15/14/6 13/12/6 16/15/6
f 17/16/7 18/17/7 19/18/7
f 21/19/8 17/20/8 22/21/8
f 17/20/9 21/19/9 23/22/9
f 24/23/10 23/22/10 25/24/10
f 26/25/11 25/24/11 27/26/11
f 28/27/12 27/26/12 29/28/12
f 18/29/13 31/30/13 32/31/13
f 31/30/14 34/32/14 32/31/14
f 18/17/15 24/33/15 31/34/15
f 17/16/16 24/33/16 18/17/16
f 26/35/17 28/36/17 31/34/17
f 30/37/18 34/38/18 28/36/18
f 30/37/19 36/39/19 34/38/19
f 37/40/20 38/41/20 36/39/20
f 38/42/14 39/43/14 34/32/14
f 36/44/21 30/45/21 29/28/21
f 37/46/22 36/44/22 40/47/22
f 10/48/1 20/49/1 12/50/1
f 12/50/1 20/49/1 14/51/1
f 42/52/13 15/53/13 43/54/13
f 8/55/23 7/56/23 45/57/23
f 7/56/24 11/58/24 44/59/24
f 47/60/25 46/61/25 11/58/25
f 48/62/26 46/61/26 47/60/26
f 47/60/26 11/58/26 13/63/26
f 6/6/27 47/60/27 13/63/27
f 5/5/25 49/64/25 48/62/25
f 5/5/28 47/60/28 6/6/28
f 50/65/29 51/66/29 49/67/29
f 53/68/1 54/69/1 55/70/1
f 56/71/1 53/68/1 55/70/1
f 57/72/16 58/73/16 59/74/16
f 58/73/30 38/41/30 59/74/30
f 58/75/29 60/76/29 39/43/29
f 59/77/31 37/46/31 41/78/31
f 57/79/32 59/77/32 61/80/32
f 62/81/33 63/82/33 57/79/33
f 57/72/7 55/83/7 64/84/7
f 49/85/34 52/86/34 48/87/34
f 48/87/35 54/88/35 46/89/35
f 46/89/36 53/90/36 44/91/36
f 44/91/37 56/92/37 45/93/37
f 29/94/7 27/95/7 40/96/7
f 25/97/7 41/98/7 27/95/7
f 25/97/7 23/99/7 41/98/7
f 21/100/7 62/101/7 23/99/7
f 21/100/7 22/102/7 62/101/7
f 45/103/7 65/104/7 63/105/7
f 8/106/7 22/102/7 9/107/7
f 8/106/7 45/103/7 22/102/7
f 43/54/13 33/108/13 67/109/13
f 32/31/13 68/110/13 33/108/13
f 42/52/13 43/54/13 69/111/13
f 60/76/29 51/66/29 71/112/29
f 39/43/29 60/76/29 72/113/29
f 35/114/25 39/43/25 73/115/25
f 51/66/29 50/65/29 70/116/29
f 35/114/25 73/115/25 32/31/25
f 66/117/38 75/118/38 67/109/38
f 75/118/38 71/112/38 76/119/38
f 66/117/38 68/110/38 75/118/38
f 71/112/38 75/118/38 72/113/38
f 70/116/38 74/120/38 76/119/38
f 67/109/38 76/119/38 69/111/38
f 69/111/38 76/119/38 74/120/38
f 4/3/13 42/52/13 69/111/13
f 1/1/29 74/120/29 50/65/29
f 1/1/39 4/3/39 74/120/39
f 4/3/13 15/53/13 42/52/13
f 3/121/40 6/122/40 15/53/40
f 1/1/29 50/65/29 49/67/29
f 1/1/29 49/67/29 2/2/29
f 16/123/13 18/29/13 43/54/13
f 16/123/13 19/124/13 18/29/13
f 58/75/29 64/125/29 52/126/29
f 51/66/29 60/76/29 58/75/29
f 10/48/1 9/127/1 20/49/1
f 14/51/1 20/49/1 16/128/1
f 55/70/41 54/69/41 52/129/41
f 55/70/1 63/82/1 65/130/1
f 2/2/1 3/121/1 4/3/1
f 3/131/42 2/4/42 6/6/42
f 8/8/43 9/132/43 10/9/43
f 7/7/44 10/9/44 12/11/44
f 11/10/45 12/11/45 14/13/45
f 13/12/46 14/13/46 16/15/46
f 20/133/7 17/16/7 19/18/7
f 17/20/47 20/49/47 22/21/47
f 24/23/48 17/20/48 23/22/48
f 26/25/49 24/23/49 25/24/49
f 28/27/50 26/25/50 27/26/50
f 30/45/12 28/27/12 29/28/12
f 33/108/13 18/29/13 32/31/13
f 34/32/14 35/114/14 32/31/14
f 24/33/51 26/35/51 31/34/51
f 28/36/52 34/38/52 31/34/52
f 38/41/52 34/38/52 36/39/52
f 39/43/14 35/114/14 34/32/14
f 40/47/21 36/44/21 29/28/21
f 41/78/53 37/46/53 40/47/53
f 15/53/13 16/123/13 43/54/13
f 7/56/26 44/59/26 45/57/26
f 11/58/25 46/61/25 44/59/25
f 15/134/54 6/6/54 13/63/54
f 47/60/25 5/5/25 48/62/25
f 51/66/29 52/126/29 49/67/29
f 38/41/55 37/40/55 59/74/55
f 38/42/29 58/75/29 39/43/29
f 61/80/56 59/77/56 41/78/56
f 62/81/57 57/79/57 61/80/57
f 63/82/58 55/70/58 57/79/58
f 58/73/7 57/72/7 64/84/7
f 52/86/59 54/88/59 48/87/59
f 54/88/60 53/90/60 46/89/60
f 53/90/61 56/92/61 44/91/61
f 56/92/62 65/135/62 45/93/62
f 41/98/7 40/96/7 27/95/7
f 23/99/7 61/136/7 41/98/7
f 62/101/7 61/136/7 23/99/7
f 22/102/7 63/105/7 62/101/7
f 45/103/7 63/105/7 22/102/7
f 33/108/13 66/117/13 67/109/13
f 68/110/13 66/117/13 33/108/13
f 43/54/13 67/109/13 69/111/13
f 51/66/29 70/116/29 71/112/29
f 60/76/29 71/112/29 72/113/29
f 39/43/25 72/113/25 73/115/25
f 50/65/29 74/120/29 70/116/29
f 73/115/25 68/110/25 32/31/25
f 75/118/38 76/119/38 67/109/38
f 71/112/38 70/116/38 76/119/38
f 68/110/38 73/115/38 75/118/38
f 75/118/38 73/115/38 72/113/38
f 4/3/39 69/111/39 74/120/39
f 4/3/13 3/121/13 15/53/13
f 49/67/63 5/137/63 2/2/63
f 18/29/13 33/108/13 43/54/13
f 52/126/29 51/66/29 58/75/29
f 9/127/1 22/21/1 20/49/1
f 20/49/1 19/138/1 16/128/1
f 64/139/1 55/70/1 52/129/1
f 56/71/1 55/70/1 65/130/1
