# Blender3D v245 OBJ File: floor_tile.blend
# www.blender3d.org
mtllib floor_tile.mtl
o Plane.002
v 0.078848 -0.000000 -1.921152
v 0.078848 -0.000000 -0.078848
v 1.921152 -0.000000 -0.078848
v 1.921152 -0.000000 -1.921152
v 0.000000 -0.050000 2.000000
v -1.921152 0.000000 0.078848
v -1.921152 0.000000 1.921152
v -0.078848 0.000000 1.921152
v -0.078848 0.000000 0.078848
v 0.078848 0.000000 0.078848
v 0.078848 0.000000 1.921152
v 1.921152 0.000000 1.921152
v 1.921152 0.000000 0.078848
v -1.921152 -0.000000 -1.921152
v -1.921152 -0.000000 -0.078848
v -0.078848 -0.000000 -0.078848
v -0.078848 -0.000000 -1.921152
v -0.078848 -0.100000 -1.921152
v -0.078848 -0.100000 -0.078847
v -1.921152 -0.100000 -0.078848
v -1.921152 -0.100000 -1.921152
v -2.000000 -0.050000 -2.000000
v -2.000000 -0.050000 0.000000
v 0.000000 -0.050000 -2.000000
v 1.921152 -0.100000 0.078848
v 1.921152 -0.100000 1.921153
v 0.078848 -0.100000 1.921152
v 0.078848 -0.100000 0.078848
v 2.000000 -0.050000 2.000000
v 2.000000 -0.050000 0.000000
v -0.078848 -0.100000 0.078848
v -0.078848 -0.100000 1.921153
v -1.921152 -0.100000 1.921152
v -1.921152 -0.100000 0.078848
v -2.000000 -0.050000 2.000000
v 0.000000 -0.050000 0.000000
v 1.921152 -0.100000 -1.921152
v 1.921152 -0.100000 -0.078847
v 0.078848 -0.100000 -0.078848
v 0.078848 -0.100000 -1.921152
v 2.000000 -0.050000 -2.000000
vt 0.015625 0.968750 0.0
vt 0.000000 0.984375 0.0
vt 0.000000 0.656250 0.0
vt 0.015625 0.671875 0.0
vt 0.000000 0.984375 0.0
vt 0.015625 0.968750 0.0
vt 0.312500 0.968750 0.0
vt 0.328125 0.984375 0.0
vt 0.328125 0.984375 0.0
vt 0.312500 0.968750 0.0
vt 0.312500 0.671875 0.0
vt 0.328125 0.656250 0.0
vt 0.328125 0.656250 0.0
vt 0.312500 0.671875 0.0
vt 0.015625 0.671875 0.0
vt 0.000000 0.656250 0.0
vt 0.312500 0.968750 0.0
vt 0.015625 0.968750 0.0
vt 0.015625 0.671875 0.0
vt 0.312500 0.671875 0.0
vt 0.328125 0.328125 0.0
vt 0.343750 0.343750 0.0
vt 0.343750 0.640625 0.0
vt 0.328125 0.656250 0.0
vt 0.328125 0.656250 0.0
vt 0.343750 0.640625 0.0
vt 0.640625 0.640625 0.0
vt 0.656250 0.656250 0.0
vt 0.656250 0.656250 0.0
vt 0.640625 0.640625 0.0
vt 0.640625 0.343750 0.0
vt 0.656250 0.328125 0.0
vt 0.656250 0.328125 0.0
vt 0.640625 0.343750 0.0
vt 0.343750 0.343750 0.0
vt 0.328125 0.328125 0.0
vt 0.343750 0.343750 0.0
vt 0.640625 0.343750 0.0
vt 0.640625 0.640625 0.0
vt 0.343750 0.640625 0.0
vt 0.328125 0.000000 0.0
vt 0.343750 0.015625 0.0
vt 0.343750 0.312500 0.0
vt 0.328125 0.328125 0.0
vt 0.328125 0.328125 0.0
vt 0.343750 0.312500 0.0
vt 0.640625 0.312500 0.0
vt 0.656250 0.328125 0.0
vt 0.656250 0.328125 0.0
vt 0.640625 0.312500 0.0
vt 0.640625 0.015625 0.0
vt 0.656250 0.000000 0.0
vt 0.656250 0.000000 0.0
vt 0.640625 0.015625 0.0
vt 0.343750 0.015625 0.0
vt 0.328125 0.000000 0.0
vt 0.343750 0.015625 0.0
vt 0.640625 0.015625 0.0
vt 0.640625 0.312500 0.0
vt 0.343750 0.312500 0.0
vt 0.984375 0.656250 0.0
vt 0.968750 0.640625 0.0
vt 0.968750 0.343750 0.0
vt 0.984375 0.328125 0.0
vt 0.984375 0.328125 0.0
vt 0.968750 0.343750 0.0
vt 0.671875 0.343750 0.0
vt 0.656250 0.328125 0.0
vt 0.656250 0.328125 0.0
vt 0.671875 0.343750 0.0
vt 0.671875 0.640625 0.0
vt 0.656250 0.656250 0.0
vt 0.656250 0.656250 0.0
vt 0.671875 0.640625 0.0
vt 0.968750 0.640625 0.0
vt 0.984375 0.656250 0.0
vt 0.968750 0.640625 0.0
vt 0.671875 0.640625 0.0
vt 0.671875 0.343750 0.0
vt 0.968750 0.343750 0.0
vt 0.015625 0.015625 0.0
vt 0.312500 0.015625 0.0
vt 0.312500 0.312500 0.0
vt 0.015625 0.312500 0.0
vt 0.000000 0.328125 0.0
vt 0.000000 0.000000 0.0
vt 0.015625 0.015625 0.0
vt 0.015625 0.312500 0.0
vt 0.328125 0.328125 0.0
vt 0.000000 0.328125 0.0
vt 0.015625 0.312500 0.0
vt 0.312500 0.312500 0.0
vt 0.328125 0.000000 0.0
vt 0.328125 0.328125 0.0
vt 0.312500 0.312500 0.0
vt 0.312500 0.015625 0.0
vt 0.000000 0.000000 0.0
vt 0.328125 0.000000 0.0
vt 0.312500 0.015625 0.0
vt 0.015625 0.015625 0.0
vt 0.640625 0.968750 0.0
vt 0.343750 0.968750 0.0
vt 0.343750 0.671875 0.0
vt 0.640625 0.671875 0.0
vt 0.656250 0.656250 0.0
vt 0.656250 0.984375 0.0
vt 0.640625 0.968750 0.0
vt 0.640625 0.671875 0.0
vt 0.328125 0.656250 0.0
vt 0.656250 0.656250 0.0
vt 0.640625 0.671875 0.0
vt 0.343750 0.671875 0.0
vt 0.328125 0.984375 0.0
vt 0.328125 0.656250 0.0
vt 0.343750 0.671875 0.0
vt 0.343750 0.968750 0.0
vt 0.656250 0.984375 0.0
vt 0.328125 0.984375 0.0
vt 0.343750 0.968750 0.0
vt 0.640625 0.968750 0.0
vt 0.968750 0.671875 0.0
vt 0.968750 0.968750 0.0
vt 0.671875 0.968750 0.0
vt 0.671875 0.671875 0.0
vt 0.656250 0.656250 0.0
vt 0.984375 0.656250 0.0
vt 0.968750 0.671875 0.0
vt 0.671875 0.671875 0.0
vt 0.656250 0.984375 0.0
vt 0.656250 0.656250 0.0
vt 0.671875 0.671875 0.0
vt 0.671875 0.968750 0.0
vt 0.984375 0.984375 0.0
vt 0.656250 0.984375 0.0
vt 0.671875 0.968750 0.0
vt 0.968750 0.968750 0.0
vt 0.984375 0.656250 0.0
vt 0.984375 0.984375 0.0
vt 0.968750 0.968750 0.0
vt 0.968750 0.671875 0.0
vt 0.015625 0.640625 0.0
vt 0.015625 0.343750 0.0
vt 0.312500 0.343750 0.0
vt 0.312500 0.640625 0.0
vt 0.328125 0.656250 0.0
vt 0.000000 0.656250 0.0
vt 0.015625 0.640625 0.0
vt 0.312500 0.640625 0.0
vt 0.328125 0.328125 0.0
vt 0.328125 0.656250 0.0
vt 0.312500 0.640625 0.0
vt 0.312500 0.343750 0.0
vt 0.312500 0.343750 0.0
vt 0.015625 0.343750 0.0
vt 0.000000 0.328125 0.0
vt 0.328125 0.328125 0.0
vt 0.000000 0.656250 0.0
vt 0.000000 0.328125 0.0
vt 0.015625 0.343750 0.0
vt 0.015625 0.640625 0.0
vn -0.535534 0.844514 -0.000000
vn 0.000000 0.844513 -0.535535
vn 0.535534 0.844514 -0.000000
vn -0.000000 0.844514 0.535533
vn -0.000000 1.000000 -0.000000
vn -0.000000 0.844514 0.535534
vn -0.535535 0.844513 -0.000000
vn 0.000000 0.844514 -0.535534
vn -0.000000 -1.000000 0.000000
vn -0.000000 -0.844513 0.535535
vn 0.535533 -0.844514 0.000000
vn 0.000000 -0.844515 -0.535532
vn -0.535535 -0.844513 -0.000000
vn 0.000000 -0.844514 -0.535534
vn -0.535533 -0.844514 -0.000000
vn 0.000000 -0.844514 -0.535533
vn -0.000000 -0.844514 0.535534
usemtl Material.002_chex_tile_uv.png
s off
f 1/1/1 24/2/1 36/3/1 2/4/1
f 24/5/2 1/6/2 4/7/2 41/8/2
f 41/9/3 4/10/3 3/11/3 30/12/3
f 30/13/4 3/14/4 2/15/4 36/16/4
f 4/17/5 1/18/5 2/19/5 3/20/5
f 35/21/1 7/22/1 6/23/1 23/24/1
f 23/25/2 6/26/2 9/27/2 36/28/2
f 36/29/3 9/30/3 8/31/3 5/32/3
f 5/33/6 8/34/6 7/35/6 35/36/6
f 7/37/5 8/38/5 9/39/5 6/40/5
f 5/41/1 11/42/1 10/43/1 36/44/1
f 36/45/2 10/46/2 13/47/2 30/48/2
f 30/49/3 13/50/3 12/51/3 29/52/3
f 29/53/6 12/54/6 11/55/6 5/56/6
f 11/57/5 12/58/5 13/59/5 10/60/5
f 23/61/7 15/62/7 14/63/7 22/64/7
f 22/65/8 14/66/8 17/67/8 24/68/8
f 24/69/3 17/70/3 16/71/3 36/72/3
f 36/73/6 16/74/6 15/75/6 23/76/6
f 15/77/5 16/78/5 17/79/5 14/80/5
f 20/81/9 21/82/9 18/83/9 19/84/9
f 36/85/10 23/86/10 20/87/10 19/88/10
f 24/89/11 36/90/11 19/91/11 18/92/11
f 22/93/12 24/94/12 18/95/12 21/96/12
f 23/97/13 22/98/13 21/99/13 20/100/13
f 27/101/9 28/102/9 25/103/9 26/104/9
f 29/105/10 5/106/10 27/107/10 26/108/10
f 30/109/11 29/110/11 26/111/11 25/112/11
f 36/113/14 30/114/14 25/115/14 28/116/14
f 5/117/15 36/118/15 28/119/15 27/120/15
f 33/121/9 34/122/9 31/123/9 32/124/9
f 5/125/10 35/126/10 33/127/10 32/128/10
f 36/129/11 5/130/11 32/131/11 31/132/11
f 23/133/16 36/134/16 31/135/16 34/136/16
f 35/137/15 23/138/15 34/139/15 33/140/15
f 39/141/9 40/142/9 37/143/9 38/144/9
f 30/145/17 36/146/17 39/147/17 38/148/17
f 41/149/11 30/150/11 38/151/11 37/152/11
f 37/153/14 40/154/14 24/155/14 41/156/14
f 36/157/15 24/158/15 40/159/15 39/160/15

